<svg width="21" height="21" viewBox="0 0 21 21" fill="none" xmlns="http://www.w3.org/2000/svg">
<circle cx="10.0424" cy="12.3305" r="7.5" fill="#F9E160"/>
<g filter="url(#filter0_i_11_257)">
<circle cx="10.0424" cy="12.3305" r="6.22881" fill="#FE881C" fill-opacity="0.72"/>
</g>
<g filter="url(#filter1_d_11_257)">
<path d="M9.75473 16.5254V15.6819C8.84768 15.6131 8.13848 15.2882 7.62712 14.7071L8.22066 13.8636C8.6407 14.3259 9.15206 14.604 9.75473 14.6977V12.8888C9.46862 12.8138 9.2312 12.7419 9.04249 12.6732C8.85377 12.5982 8.65592 12.4951 8.44894 12.3639C8.24197 12.2264 8.08369 12.0515 7.97411 11.839C7.87062 11.6203 7.81888 11.3641 7.81888 11.0705C7.81888 10.5893 7.99542 10.18 8.3485 9.84262C8.70158 9.5052 9.17032 9.31149 9.75473 9.26151V8.38984H10.4852V9.27088C11.2218 9.35211 11.8336 9.63329 12.3207 10.1144L11.7089 10.9299C11.374 10.5924 10.9662 10.3737 10.4852 10.2738V11.8859C10.7105 11.9484 10.9022 12.0077 11.0605 12.064C11.2188 12.1202 11.3923 12.2014 11.581 12.3077C11.7758 12.4076 11.9311 12.5201 12.0467 12.6451C12.1624 12.7638 12.2598 12.92 12.3389 13.1137C12.4181 13.3074 12.4576 13.5261 12.4576 13.7698C12.4576 14.2822 12.2902 14.7165 11.9554 15.0726C11.6267 15.4226 11.1366 15.6256 10.4852 15.6819V16.5254H9.75473ZM11.1518 14.3978C11.2979 14.2416 11.371 14.0666 11.371 13.8729C11.371 13.6792 11.2949 13.523 11.1427 13.4043C10.9905 13.2793 10.7714 13.1731 10.4852 13.0856V14.7071C10.7835 14.6571 11.0057 14.554 11.1518 14.3978ZM8.91465 10.9955C8.91465 11.2954 9.19468 11.5266 9.75473 11.6891V10.2269C9.49297 10.2519 9.28599 10.3363 9.1338 10.48C8.9877 10.6174 8.91465 10.7893 8.91465 10.9955Z" fill="#FFEA7C"/>
</g>
<g filter="url(#filter2_f_11_257)" style="mix-blend-mode:overlay">
<circle cx="10.1695" cy="10.1695" r="4.0678" fill="white"/>
</g>
<defs>
<filter id="filter0_i_11_257" x="3.81356" y="6.1017" width="12.4576" height="12.7119" filterUnits="userSpaceOnUse" color-interpolation-filters="sRGB">
<feFlood flood-opacity="0" result="BackgroundImageFix"/>
<feBlend mode="normal" in="SourceGraphic" in2="BackgroundImageFix" result="shape"/>
<feColorMatrix in="SourceAlpha" type="matrix" values="0 0 0 0 0 0 0 0 0 0 0 0 0 0 0 0 0 0 127 0" result="hardAlpha"/>
<feMorphology radius="0.254237" operator="erode" in="SourceAlpha" result="effect1_innerShadow_11_257"/>
<feOffset dy="0.254237"/>
<feComposite in2="hardAlpha" operator="arithmetic" k2="-1" k3="1"/>
<feColorMatrix type="matrix" values="0 0 0 0 0 0 0 0 0 0 0 0 0 0 0 0 0 0 0.25 0"/>
<feBlend mode="normal" in2="shape" result="effect1_innerShadow_11_257"/>
</filter>
<filter id="filter1_d_11_257" x="7.62712" y="8.38984" width="4.83051" height="8.38983" filterUnits="userSpaceOnUse" color-interpolation-filters="sRGB">
<feFlood flood-opacity="0" result="BackgroundImageFix"/>
<feColorMatrix in="SourceAlpha" type="matrix" values="0 0 0 0 0 0 0 0 0 0 0 0 0 0 0 0 0 0 127 0" result="hardAlpha"/>
<feOffset dy="0.254237"/>
<feComposite in2="hardAlpha" operator="out"/>
<feColorMatrix type="matrix" values="0 0 0 0 0 0 0 0 0 0 0 0 0 0 0 0 0 0 0.25 0"/>
<feBlend mode="normal" in2="BackgroundImageFix" result="effect1_dropShadow_11_257"/>
<feBlend mode="normal" in="SourceGraphic" in2="effect1_dropShadow_11_257" result="shape"/>
</filter>
<filter id="filter2_f_11_257" x="1.43051e-06" y="1.43051e-06" width="20.339" height="20.339" filterUnits="userSpaceOnUse" color-interpolation-filters="sRGB">
<feFlood flood-opacity="0" result="BackgroundImageFix"/>
<feBlend mode="normal" in="SourceGraphic" in2="BackgroundImageFix" result="shape"/>
<feGaussianBlur stdDeviation="3.05085" result="effect1_foregroundBlur_11_257"/>
</filter>
</defs>
</svg>
